<mxfile host="app.diagrams.net" agent="Mozilla/5.0 (Windows NT 10.0; Win64; x64; rv:132.0) Gecko/20100101 Firefox/132.0" version="24.8.4">
  <diagram name="Página-1" id="jotXDSImBOa3IzDwY_8n">
    <mxGraphModel dx="1257" dy="631" grid="1" gridSize="10" guides="1" tooltips="1" connect="1" arrows="1" fold="1" page="1" pageScale="1" pageWidth="827" pageHeight="1169" math="0" shadow="0">
      <root>
        <mxCell id="0" />
        <mxCell id="1" parent="0" />
        <mxCell id="CJp5kvLnDAizg7_zLjM4-17" value="BolsaFácil" style="shape=umlFrame;whiteSpace=wrap;html=1;pointerEvents=0;recursiveResize=0;container=1;collapsible=0;width=160;" parent="1" vertex="1">
          <mxGeometry x="120" y="40" width="880" height="780" as="geometry" />
        </mxCell>
        <mxCell id="CJp5kvLnDAizg7_zLjM4-18" value="Fazer Teste Vocacional" style="ellipse;whiteSpace=wrap;html=1;" parent="CJp5kvLnDAizg7_zLjM4-17" vertex="1">
          <mxGeometry x="40" y="180" width="160" height="40" as="geometry" />
        </mxCell>
        <mxCell id="CJp5kvLnDAizg7_zLjM4-15" value="Consultar Bolsas" style="ellipse;whiteSpace=wrap;html=1;" parent="CJp5kvLnDAizg7_zLjM4-17" vertex="1">
          <mxGeometry x="40" y="80" width="160" height="40" as="geometry" />
        </mxCell>
        <mxCell id="CJp5kvLnDAizg7_zLjM4-13" value="Cadastrar Aluno" style="ellipse;whiteSpace=wrap;html=1;" parent="CJp5kvLnDAizg7_zLjM4-17" vertex="1">
          <mxGeometry x="40" y="280" width="160" height="40" as="geometry" />
        </mxCell>
        <mxCell id="LorEMSW-qCf9unugVajg-1" value="&amp;lt;&amp;lt;include&amp;gt;&amp;gt;" style="html=1;verticalAlign=bottom;labelBackgroundColor=none;endArrow=open;endFill=0;dashed=1;rounded=0;exitX=1;exitY=0.5;exitDx=0;exitDy=0;entryX=0;entryY=0.5;entryDx=0;entryDy=0;" parent="CJp5kvLnDAizg7_zLjM4-17" source="CJp5kvLnDAizg7_zLjM4-15" target="CJp5kvLnDAizg7_zLjM4-14" edge="1">
          <mxGeometry x="-0.0931" y="1" width="160" relative="1" as="geometry">
            <mxPoint x="340" y="100" as="sourcePoint" />
            <mxPoint x="500" y="100" as="targetPoint" />
            <mxPoint as="offset" />
          </mxGeometry>
        </mxCell>
        <mxCell id="LorEMSW-qCf9unugVajg-2" value="&amp;lt;&amp;lt;include&amp;gt;&amp;gt;" style="html=1;verticalAlign=bottom;labelBackgroundColor=none;endArrow=open;endFill=0;dashed=1;rounded=0;exitX=1;exitY=0.5;exitDx=0;exitDy=0;entryX=0;entryY=0.5;entryDx=0;entryDy=0;" parent="CJp5kvLnDAizg7_zLjM4-17" source="CJp5kvLnDAizg7_zLjM4-18" target="CJp5kvLnDAizg7_zLjM4-14" edge="1">
          <mxGeometry x="-0.0483" y="-3" width="160" relative="1" as="geometry">
            <mxPoint x="290" y="280" as="sourcePoint" />
            <mxPoint x="450" y="280" as="targetPoint" />
            <mxPoint as="offset" />
          </mxGeometry>
        </mxCell>
        <mxCell id="LorEMSW-qCf9unugVajg-6" value="&amp;lt;&amp;lt;include&amp;gt;&amp;gt;" style="html=1;verticalAlign=bottom;labelBackgroundColor=none;endArrow=open;endFill=0;dashed=1;rounded=0;exitX=1;exitY=0.5;exitDx=0;exitDy=0;entryX=0;entryY=0.5;entryDx=0;entryDy=0;" parent="CJp5kvLnDAizg7_zLjM4-17" source="i4VnU3G38jokh0D2susj-2" target="CJp5kvLnDAizg7_zLjM4-14" edge="1">
          <mxGeometry x="-0.197" y="-13" width="160" relative="1" as="geometry">
            <mxPoint x="210" y="110" as="sourcePoint" />
            <mxPoint x="295" y="250" as="targetPoint" />
            <mxPoint as="offset" />
          </mxGeometry>
        </mxCell>
        <mxCell id="LorEMSW-qCf9unugVajg-10" value="&amp;lt;&amp;lt;extend&amp;gt;&amp;gt;" style="html=1;verticalAlign=bottom;labelBackgroundColor=none;endArrow=open;endFill=0;dashed=1;rounded=0;entryX=1;entryY=0.5;entryDx=0;entryDy=0;exitX=0;exitY=0.5;exitDx=0;exitDy=0;" parent="CJp5kvLnDAizg7_zLjM4-17" source="CJp5kvLnDAizg7_zLjM4-14" target="CJp5kvLnDAizg7_zLjM4-13" edge="1">
          <mxGeometry x="0.0769" y="10" width="160" relative="1" as="geometry">
            <mxPoint x="320" y="310" as="sourcePoint" />
            <mxPoint x="480" y="310" as="targetPoint" />
            <mxPoint as="offset" />
          </mxGeometry>
        </mxCell>
        <mxCell id="LorEMSW-qCf9unugVajg-11" value="&amp;lt;&amp;lt;extend&amp;gt;&amp;gt;" style="html=1;verticalAlign=bottom;labelBackgroundColor=none;endArrow=open;endFill=0;dashed=1;rounded=0;entryX=1;entryY=0.5;entryDx=0;entryDy=0;exitX=0;exitY=0.5;exitDx=0;exitDy=0;" parent="CJp5kvLnDAizg7_zLjM4-17" source="CJp5kvLnDAizg7_zLjM4-14" target="LorEMSW-qCf9unugVajg-4" edge="1">
          <mxGeometry x="0.3149" y="6" width="160" relative="1" as="geometry">
            <mxPoint x="295" y="290" as="sourcePoint" />
            <mxPoint x="210" y="290" as="targetPoint" />
            <mxPoint y="1" as="offset" />
          </mxGeometry>
        </mxCell>
        <mxCell id="i4VnU3G38jokh0D2susj-2" value="Adicionar Bolsas" style="ellipse;whiteSpace=wrap;html=1;" parent="CJp5kvLnDAizg7_zLjM4-17" vertex="1">
          <mxGeometry x="40" y="380" width="160" height="40" as="geometry" />
        </mxCell>
        <mxCell id="LorEMSW-qCf9unugVajg-4" value="Cadastrar Instituição" style="ellipse;whiteSpace=wrap;html=1;" parent="CJp5kvLnDAizg7_zLjM4-17" vertex="1">
          <mxGeometry x="40" y="680" width="160" height="40" as="geometry" />
        </mxCell>
        <mxCell id="CTZ8OYcykX9E8cTpIDPS-7" value="Editar Bolsas" style="ellipse;whiteSpace=wrap;html=1;" vertex="1" parent="CJp5kvLnDAizg7_zLjM4-17">
          <mxGeometry x="40" y="480" width="160" height="40" as="geometry" />
        </mxCell>
        <mxCell id="CTZ8OYcykX9E8cTpIDPS-8" value="Remover Bolsas" style="ellipse;whiteSpace=wrap;html=1;" vertex="1" parent="CJp5kvLnDAizg7_zLjM4-17">
          <mxGeometry x="40" y="580" width="160" height="40" as="geometry" />
        </mxCell>
        <mxCell id="CTZ8OYcykX9E8cTpIDPS-11" value="&amp;lt;&amp;lt;include&amp;gt;&amp;gt;" style="html=1;verticalAlign=bottom;labelBackgroundColor=none;endArrow=open;endFill=0;dashed=1;rounded=0;exitX=1;exitY=0.5;exitDx=0;exitDy=0;entryX=0;entryY=0.5;entryDx=0;entryDy=0;" edge="1" parent="CJp5kvLnDAizg7_zLjM4-17" source="CTZ8OYcykX9E8cTpIDPS-7" target="CJp5kvLnDAizg7_zLjM4-14">
          <mxGeometry x="-0.2921" y="-6" width="160" relative="1" as="geometry">
            <mxPoint x="210" y="410" as="sourcePoint" />
            <mxPoint x="370" y="310" as="targetPoint" />
            <mxPoint as="offset" />
          </mxGeometry>
        </mxCell>
        <mxCell id="CTZ8OYcykX9E8cTpIDPS-12" value="&amp;lt;&amp;lt;include&amp;gt;&amp;gt;" style="html=1;verticalAlign=bottom;labelBackgroundColor=none;endArrow=open;endFill=0;dashed=1;rounded=0;exitX=1;exitY=0.5;exitDx=0;exitDy=0;entryX=0;entryY=0.5;entryDx=0;entryDy=0;" edge="1" parent="CJp5kvLnDAizg7_zLjM4-17" source="CTZ8OYcykX9E8cTpIDPS-8" target="CJp5kvLnDAizg7_zLjM4-14">
          <mxGeometry x="-0.2805" y="-3" width="160" relative="1" as="geometry">
            <mxPoint x="210" y="510" as="sourcePoint" />
            <mxPoint x="370" y="310" as="targetPoint" />
            <mxPoint x="1" as="offset" />
          </mxGeometry>
        </mxCell>
        <mxCell id="CJp5kvLnDAizg7_zLjM4-14" value="Fazer Login" style="ellipse;whiteSpace=wrap;html=1;" parent="CJp5kvLnDAizg7_zLjM4-17" vertex="1">
          <mxGeometry x="360" y="380" width="160" height="40" as="geometry" />
        </mxCell>
        <mxCell id="LorEMSW-qCf9unugVajg-7" value="&amp;lt;&amp;lt;include&amp;gt;&amp;gt;" style="html=1;verticalAlign=bottom;labelBackgroundColor=none;endArrow=open;endFill=0;dashed=1;rounded=0;exitX=0;exitY=0.5;exitDx=0;exitDy=0;entryX=1;entryY=0.5;entryDx=0;entryDy=0;" parent="CJp5kvLnDAizg7_zLjM4-17" source="CJp5kvLnDAizg7_zLjM4-23" edge="1" target="CJp5kvLnDAizg7_zLjM4-14">
          <mxGeometry width="160" relative="1" as="geometry">
            <mxPoint x="255" y="210" as="sourcePoint" />
            <mxPoint x="490" y="400" as="targetPoint" />
          </mxGeometry>
        </mxCell>
        <mxCell id="LorEMSW-qCf9unugVajg-8" value="&amp;lt;&amp;lt;include&amp;gt;&amp;gt;" style="html=1;verticalAlign=bottom;labelBackgroundColor=none;endArrow=open;endFill=0;dashed=1;rounded=0;exitX=0;exitY=0.5;exitDx=0;exitDy=0;entryX=1;entryY=0.5;entryDx=0;entryDy=0;" parent="CJp5kvLnDAizg7_zLjM4-17" source="CJp5kvLnDAizg7_zLjM4-24" edge="1" target="CJp5kvLnDAizg7_zLjM4-14">
          <mxGeometry width="160" relative="1" as="geometry">
            <mxPoint x="575" y="300" as="sourcePoint" />
            <mxPoint x="490" y="400" as="targetPoint" />
          </mxGeometry>
        </mxCell>
        <mxCell id="LorEMSW-qCf9unugVajg-9" value="&amp;lt;&amp;lt;include&amp;gt;&amp;gt;" style="html=1;verticalAlign=bottom;labelBackgroundColor=none;endArrow=open;endFill=0;dashed=1;rounded=0;exitX=0;exitY=0.5;exitDx=0;exitDy=0;entryX=1;entryY=0.5;entryDx=0;entryDy=0;" parent="CJp5kvLnDAizg7_zLjM4-17" source="i4VnU3G38jokh0D2susj-5" edge="1" target="CJp5kvLnDAizg7_zLjM4-14">
          <mxGeometry width="160" relative="1" as="geometry">
            <mxPoint x="575" y="300" as="sourcePoint" />
            <mxPoint x="490" y="400" as="targetPoint" />
          </mxGeometry>
        </mxCell>
        <mxCell id="CTZ8OYcykX9E8cTpIDPS-2" value="&amp;lt;&amp;lt;include&amp;gt;&amp;gt;" style="html=1;verticalAlign=bottom;labelBackgroundColor=none;endArrow=open;endFill=0;dashed=1;rounded=0;exitX=0;exitY=0.5;exitDx=0;exitDy=0;entryX=1;entryY=0.5;entryDx=0;entryDy=0;" edge="1" parent="CJp5kvLnDAizg7_zLjM4-17" source="CTZ8OYcykX9E8cTpIDPS-1" target="CJp5kvLnDAizg7_zLjM4-14">
          <mxGeometry width="160" relative="1" as="geometry">
            <mxPoint x="340" y="360" as="sourcePoint" />
            <mxPoint x="500" y="360" as="targetPoint" />
          </mxGeometry>
        </mxCell>
        <mxCell id="CTZ8OYcykX9E8cTpIDPS-6" value="&amp;lt;&amp;lt;include&amp;gt;&amp;gt;" style="html=1;verticalAlign=bottom;labelBackgroundColor=none;endArrow=open;endFill=0;dashed=1;rounded=0;exitX=0;exitY=0.5;exitDx=0;exitDy=0;entryX=1;entryY=0.5;entryDx=0;entryDy=0;" edge="1" parent="CJp5kvLnDAizg7_zLjM4-17" source="CTZ8OYcykX9E8cTpIDPS-4" target="CJp5kvLnDAizg7_zLjM4-14">
          <mxGeometry width="160" relative="1" as="geometry">
            <mxPoint x="630" y="550" as="sourcePoint" />
            <mxPoint x="500" y="410" as="targetPoint" />
          </mxGeometry>
        </mxCell>
        <mxCell id="CJp5kvLnDAizg7_zLjM4-23" value="Adicionar Usuários" style="ellipse;whiteSpace=wrap;html=1;" parent="CJp5kvLnDAizg7_zLjM4-17" vertex="1">
          <mxGeometry x="660" y="180" width="160" height="40" as="geometry" />
        </mxCell>
        <mxCell id="CJp5kvLnDAizg7_zLjM4-24" value="Editar Usuários" style="ellipse;whiteSpace=wrap;html=1;" parent="CJp5kvLnDAizg7_zLjM4-17" vertex="1">
          <mxGeometry x="660" y="280" width="160" height="40" as="geometry" />
        </mxCell>
        <mxCell id="i4VnU3G38jokh0D2susj-5" value="Modelar Dashboard" style="ellipse;whiteSpace=wrap;html=1;" parent="CJp5kvLnDAizg7_zLjM4-17" vertex="1">
          <mxGeometry x="660" y="480" width="160" height="40" as="geometry" />
        </mxCell>
        <mxCell id="CTZ8OYcykX9E8cTpIDPS-1" value="Remover Usuários" style="ellipse;whiteSpace=wrap;html=1;" vertex="1" parent="CJp5kvLnDAizg7_zLjM4-17">
          <mxGeometry x="660" y="380" width="160" height="40" as="geometry" />
        </mxCell>
        <mxCell id="CTZ8OYcykX9E8cTpIDPS-4" value="Emitir Relatórios" style="ellipse;whiteSpace=wrap;html=1;" vertex="1" parent="CJp5kvLnDAizg7_zLjM4-17">
          <mxGeometry x="660" y="580" width="160" height="40" as="geometry" />
        </mxCell>
        <mxCell id="CJp5kvLnDAizg7_zLjM4-8" value="Administrador" style="shape=umlActor;verticalLabelPosition=bottom;verticalAlign=top;html=1;outlineConnect=0;" parent="CJp5kvLnDAizg7_zLjM4-17" vertex="1">
          <mxGeometry x="920" y="380" width="30" height="60" as="geometry" />
        </mxCell>
        <mxCell id="9CWBCD603axs-k9x3BAV-18" value="" style="endArrow=none;html=1;rounded=0;entryX=0;entryY=0.3333333333333333;entryDx=0;entryDy=0;entryPerimeter=0;exitX=1;exitY=0.5;exitDx=0;exitDy=0;" parent="CJp5kvLnDAizg7_zLjM4-17" source="CJp5kvLnDAizg7_zLjM4-23" target="CJp5kvLnDAizg7_zLjM4-8" edge="1">
          <mxGeometry width="50" height="50" relative="1" as="geometry">
            <mxPoint x="630" y="420" as="sourcePoint" />
            <mxPoint x="680" y="370" as="targetPoint" />
          </mxGeometry>
        </mxCell>
        <mxCell id="9CWBCD603axs-k9x3BAV-17" value="" style="endArrow=none;html=1;rounded=0;entryX=0;entryY=0.3333333333333333;entryDx=0;entryDy=0;entryPerimeter=0;exitX=1;exitY=0.5;exitDx=0;exitDy=0;" parent="CJp5kvLnDAizg7_zLjM4-17" source="CJp5kvLnDAizg7_zLjM4-24" target="CJp5kvLnDAizg7_zLjM4-8" edge="1">
          <mxGeometry width="50" height="50" relative="1" as="geometry">
            <mxPoint x="490" y="520" as="sourcePoint" />
            <mxPoint x="540" y="470" as="targetPoint" />
          </mxGeometry>
        </mxCell>
        <mxCell id="9CWBCD603axs-k9x3BAV-19" value="" style="endArrow=none;html=1;rounded=0;exitX=0;exitY=0.3333333333333333;exitDx=0;exitDy=0;exitPerimeter=0;entryX=1;entryY=0.5;entryDx=0;entryDy=0;" parent="CJp5kvLnDAizg7_zLjM4-17" source="CJp5kvLnDAizg7_zLjM4-8" target="i4VnU3G38jokh0D2susj-5" edge="1">
          <mxGeometry width="50" height="50" relative="1" as="geometry">
            <mxPoint x="630" y="420" as="sourcePoint" />
            <mxPoint x="680" y="370" as="targetPoint" />
          </mxGeometry>
        </mxCell>
        <mxCell id="CTZ8OYcykX9E8cTpIDPS-3" value="" style="endArrow=none;html=1;rounded=0;entryX=0;entryY=0.3333333333333333;entryDx=0;entryDy=0;entryPerimeter=0;exitX=1;exitY=0.5;exitDx=0;exitDy=0;" edge="1" parent="CJp5kvLnDAizg7_zLjM4-17" source="CTZ8OYcykX9E8cTpIDPS-1" target="CJp5kvLnDAizg7_zLjM4-8">
          <mxGeometry width="50" height="50" relative="1" as="geometry">
            <mxPoint x="820" y="370" as="sourcePoint" />
            <mxPoint x="917" y="420" as="targetPoint" />
          </mxGeometry>
        </mxCell>
        <mxCell id="CTZ8OYcykX9E8cTpIDPS-5" value="" style="endArrow=none;html=1;rounded=0;entryX=0;entryY=0.3333333333333333;entryDx=0;entryDy=0;entryPerimeter=0;exitX=1;exitY=0.5;exitDx=0;exitDy=0;" edge="1" parent="CJp5kvLnDAizg7_zLjM4-17" source="CTZ8OYcykX9E8cTpIDPS-4" target="CJp5kvLnDAizg7_zLjM4-8">
          <mxGeometry width="50" height="50" relative="1" as="geometry">
            <mxPoint x="820" y="460" as="sourcePoint" />
            <mxPoint x="917" y="420" as="targetPoint" />
          </mxGeometry>
        </mxCell>
        <mxCell id="CJp5kvLnDAizg7_zLjM4-7" value="Aluno" style="shape=umlActor;verticalLabelPosition=bottom;verticalAlign=top;html=1;outlineConnect=0;" parent="1" vertex="1">
          <mxGeometry x="40" y="220" width="30" height="60" as="geometry" />
        </mxCell>
        <mxCell id="9CWBCD603axs-k9x3BAV-11" value="" style="endArrow=none;html=1;rounded=0;exitX=1;exitY=0.3333333333333333;exitDx=0;exitDy=0;exitPerimeter=0;entryX=0;entryY=0.5;entryDx=0;entryDy=0;" parent="1" source="CJp5kvLnDAizg7_zLjM4-7" target="CJp5kvLnDAizg7_zLjM4-13" edge="1">
          <mxGeometry width="50" height="50" relative="1" as="geometry">
            <mxPoint x="520" y="350" as="sourcePoint" />
            <mxPoint x="570" y="300" as="targetPoint" />
          </mxGeometry>
        </mxCell>
        <mxCell id="9CWBCD603axs-k9x3BAV-12" value="" style="endArrow=none;html=1;rounded=0;exitX=1;exitY=0.3333333333333333;exitDx=0;exitDy=0;exitPerimeter=0;entryX=0;entryY=0.5;entryDx=0;entryDy=0;" parent="1" source="CJp5kvLnDAizg7_zLjM4-7" target="CJp5kvLnDAizg7_zLjM4-15" edge="1">
          <mxGeometry width="50" height="50" relative="1" as="geometry">
            <mxPoint x="160" y="250" as="sourcePoint" />
            <mxPoint x="210" y="200" as="targetPoint" />
          </mxGeometry>
        </mxCell>
        <mxCell id="9CWBCD603axs-k9x3BAV-15" value="" style="endArrow=none;html=1;rounded=0;entryX=0;entryY=0.5;entryDx=0;entryDy=0;exitX=1;exitY=0.3333333333333333;exitDx=0;exitDy=0;exitPerimeter=0;" parent="1" source="CJp5kvLnDAizg7_zLjM4-7" target="CJp5kvLnDAizg7_zLjM4-18" edge="1">
          <mxGeometry width="50" height="50" relative="1" as="geometry">
            <mxPoint x="70" y="190" as="sourcePoint" />
            <mxPoint x="120" y="140" as="targetPoint" />
          </mxGeometry>
        </mxCell>
        <mxCell id="i4VnU3G38jokh0D2susj-1" value="Instituição" style="shape=umlActor;verticalLabelPosition=bottom;verticalAlign=top;html=1;outlineConnect=0;" parent="1" vertex="1">
          <mxGeometry x="40" y="555" width="30" height="60" as="geometry" />
        </mxCell>
        <mxCell id="9CWBCD603axs-k9x3BAV-16" value="" style="endArrow=none;html=1;rounded=0;exitX=1;exitY=0.3333333333333333;exitDx=0;exitDy=0;exitPerimeter=0;entryX=0;entryY=0.5;entryDx=0;entryDy=0;" parent="1" source="i4VnU3G38jokh0D2susj-1" target="i4VnU3G38jokh0D2susj-2" edge="1">
          <mxGeometry width="50" height="50" relative="1" as="geometry">
            <mxPoint x="80" y="440" as="sourcePoint" />
            <mxPoint x="130" y="390" as="targetPoint" />
          </mxGeometry>
        </mxCell>
        <mxCell id="LorEMSW-qCf9unugVajg-5" value="" style="endArrow=none;html=1;rounded=0;exitX=1;exitY=0.3333333333333333;exitDx=0;exitDy=0;exitPerimeter=0;entryX=0;entryY=0.5;entryDx=0;entryDy=0;" parent="1" source="i4VnU3G38jokh0D2susj-1" target="LorEMSW-qCf9unugVajg-4" edge="1">
          <mxGeometry width="50" height="50" relative="1" as="geometry">
            <mxPoint x="80" y="450" as="sourcePoint" />
            <mxPoint x="160" y="450" as="targetPoint" />
          </mxGeometry>
        </mxCell>
        <mxCell id="CTZ8OYcykX9E8cTpIDPS-9" value="" style="endArrow=none;html=1;rounded=0;exitX=1;exitY=0.3333333333333333;exitDx=0;exitDy=0;exitPerimeter=0;entryX=0;entryY=0.5;entryDx=0;entryDy=0;" edge="1" parent="1" source="i4VnU3G38jokh0D2susj-1" target="CTZ8OYcykX9E8cTpIDPS-7">
          <mxGeometry width="50" height="50" relative="1" as="geometry">
            <mxPoint x="80" y="585" as="sourcePoint" />
            <mxPoint x="170" y="450" as="targetPoint" />
          </mxGeometry>
        </mxCell>
        <mxCell id="CTZ8OYcykX9E8cTpIDPS-10" value="" style="endArrow=none;html=1;rounded=0;exitX=1;exitY=0.3333333333333333;exitDx=0;exitDy=0;exitPerimeter=0;entryX=0;entryY=0.5;entryDx=0;entryDy=0;" edge="1" parent="1" source="i4VnU3G38jokh0D2susj-1" target="CTZ8OYcykX9E8cTpIDPS-8">
          <mxGeometry width="50" height="50" relative="1" as="geometry">
            <mxPoint x="80" y="585" as="sourcePoint" />
            <mxPoint x="170" y="550" as="targetPoint" />
          </mxGeometry>
        </mxCell>
      </root>
    </mxGraphModel>
  </diagram>
</mxfile>
